%TF.GenerationSoftware,KiCad,Pcbnew,8.0.3*%
%TF.CreationDate,2024-07-05T12:35:55-05:00*%
%TF.ProjectId,Bald Probe Test Fixture rev1,42616c64-2050-4726-9f62-652054657374,1*%
%TF.SameCoordinates,Original*%
%TF.FileFunction,Copper,L1,Top*%
%TF.FilePolarity,Positive*%
%FSLAX46Y46*%
G04 Gerber Fmt 4.6, Leading zero omitted, Abs format (unit mm)*
G04 Created by KiCad (PCBNEW 8.0.3) date 2024-07-05 12:35:55*
%MOMM*%
%LPD*%
G01*
G04 APERTURE LIST*
%TA.AperFunction,SMDPad,CuDef*%
%ADD10R,5.080000X2.290000*%
%TD*%
%TA.AperFunction,SMDPad,CuDef*%
%ADD11R,5.080000X2.420000*%
%TD*%
%TA.AperFunction,SMDPad,CuDef*%
%ADD12R,0.950000X0.460000*%
%TD*%
%TA.AperFunction,ComponentPad*%
%ADD13C,0.970000*%
%TD*%
%TA.AperFunction,ViaPad*%
%ADD14C,0.600000*%
%TD*%
%TA.AperFunction,Conductor*%
%ADD15C,2.450000*%
%TD*%
G04 APERTURE END LIST*
D10*
%TO.P,J2,1,In*%
%TO.N,/thru_trace*%
X143250000Y-93980000D03*
D11*
%TO.P,J2,2,Ext*%
%TO.N,GND*%
X143250000Y-98360000D03*
X143250000Y-89600000D03*
D12*
X140260000Y-98360000D03*
X140260000Y-89600000D03*
D13*
X139810000Y-98360000D03*
X139810000Y-89600000D03*
%TD*%
D10*
%TO.P,J1,1,In*%
%TO.N,/thru_trace*%
X113290000Y-93980000D03*
D11*
%TO.P,J1,2,Ext*%
%TO.N,GND*%
X113290000Y-89600000D03*
X113290000Y-98360000D03*
D12*
X116280000Y-89600000D03*
X116280000Y-98360000D03*
D13*
X116730000Y-89600000D03*
X116730000Y-98360000D03*
%TD*%
D14*
%TO.N,GND*%
X118583000Y-90805000D03*
X134052500Y-97155000D03*
X137957000Y-97155000D03*
X142969500Y-86860000D03*
X131485500Y-97155000D03*
X119934000Y-90805000D03*
X118745000Y-99695000D03*
X114732500Y-86860000D03*
X146820000Y-97128000D03*
X122433500Y-86860000D03*
X146820000Y-98411500D03*
X134106500Y-101100000D03*
X119934000Y-97155000D03*
X126351500Y-97155000D03*
X109720000Y-88265000D03*
X135268500Y-86860000D03*
X117421000Y-101100000D03*
X137903000Y-89535000D03*
X118583000Y-89535000D03*
X132823000Y-101100000D03*
X139119000Y-86860000D03*
X127635000Y-97155000D03*
X127635000Y-90805000D03*
X132701500Y-86860000D03*
X118583000Y-88251500D03*
X121150000Y-86860000D03*
X137957000Y-98411500D03*
X135336000Y-97155000D03*
X137957000Y-99695000D03*
X136552000Y-86860000D03*
X113449000Y-86860000D03*
X125000500Y-86860000D03*
X109720000Y-97249500D03*
X126284000Y-86860000D03*
X118745000Y-98411500D03*
X112287000Y-101100000D03*
X132769000Y-90805000D03*
X118745000Y-97155000D03*
X130202000Y-90805000D03*
X118583000Y-86860000D03*
X128918500Y-97155000D03*
X143091000Y-101100000D03*
X140524000Y-101100000D03*
X126405500Y-101100000D03*
X133985000Y-86860000D03*
X141807500Y-101100000D03*
X130202000Y-97155000D03*
X141686000Y-86860000D03*
X116016000Y-86860000D03*
X146820000Y-88143500D03*
X128918500Y-90805000D03*
X134052500Y-90805000D03*
X128851000Y-86860000D03*
X130134500Y-86860000D03*
X119988000Y-101100000D03*
X131485500Y-90805000D03*
X121217500Y-97155000D03*
X140402500Y-86860000D03*
X117299500Y-86860000D03*
X128972500Y-101100000D03*
X144253000Y-86860000D03*
X146820000Y-99695000D03*
X146820000Y-90710500D03*
X135336000Y-90805000D03*
X116137500Y-101100000D03*
X136619500Y-97155000D03*
X126351500Y-90805000D03*
X144374500Y-101100000D03*
X119866500Y-86860000D03*
X113570500Y-101100000D03*
X139240500Y-101100000D03*
X110882000Y-86860000D03*
X137903000Y-88251500D03*
X145658000Y-101100000D03*
X123784500Y-90805000D03*
X114854000Y-101100000D03*
X122501000Y-97155000D03*
X121271500Y-101100000D03*
X131418000Y-86860000D03*
X122501000Y-90805000D03*
X125068000Y-97155000D03*
X131539500Y-101100000D03*
X109720000Y-99816500D03*
X109720000Y-90832000D03*
X127567500Y-86860000D03*
X136673500Y-101100000D03*
X137957000Y-101100000D03*
X130256000Y-101100000D03*
X109720000Y-89548500D03*
X109720000Y-98533000D03*
X118745000Y-101100000D03*
X127689000Y-101100000D03*
X137903000Y-90805000D03*
X136619500Y-90805000D03*
X145536500Y-86860000D03*
X112165500Y-86860000D03*
X125122000Y-101100000D03*
X135390000Y-101100000D03*
X125068000Y-90805000D03*
X123784500Y-97155000D03*
X132769000Y-97155000D03*
X122555000Y-101100000D03*
X121217500Y-90805000D03*
X123838500Y-101100000D03*
X123717000Y-86860000D03*
X111003500Y-101100000D03*
X146820000Y-89427000D03*
X137903000Y-86860000D03*
%TD*%
D15*
%TO.N,/thru_trace*%
X112522000Y-93980000D02*
X144012000Y-93980000D01*
%TD*%
%TA.AperFunction,Conductor*%
%TO.N,GND*%
G36*
X145322456Y-86487661D02*
G01*
X145559500Y-86503197D01*
X145569235Y-86504478D01*
X145799815Y-86550344D01*
X145809298Y-86552885D01*
X146031914Y-86628454D01*
X146040984Y-86632210D01*
X146251835Y-86736190D01*
X146260348Y-86741105D01*
X146455810Y-86871709D01*
X146463610Y-86877694D01*
X146640351Y-87032693D01*
X146647306Y-87039648D01*
X146802305Y-87216389D01*
X146808293Y-87224193D01*
X146938892Y-87419648D01*
X146943811Y-87428167D01*
X147047785Y-87639006D01*
X147051549Y-87648094D01*
X147127111Y-87870692D01*
X147129657Y-87880193D01*
X147175519Y-88110755D01*
X147176803Y-88120508D01*
X147192339Y-88357543D01*
X147192500Y-88362461D01*
X147192500Y-99597538D01*
X147192339Y-99602456D01*
X147176803Y-99839491D01*
X147175519Y-99849244D01*
X147129657Y-100079806D01*
X147127111Y-100089307D01*
X147051549Y-100311905D01*
X147047785Y-100320993D01*
X146943811Y-100531832D01*
X146938892Y-100540351D01*
X146808293Y-100735806D01*
X146802305Y-100743610D01*
X146647306Y-100920351D01*
X146640351Y-100927306D01*
X146463610Y-101082305D01*
X146455806Y-101088293D01*
X146260351Y-101218892D01*
X146251832Y-101223811D01*
X146040993Y-101327785D01*
X146031905Y-101331549D01*
X145809307Y-101407111D01*
X145799806Y-101409657D01*
X145569244Y-101455519D01*
X145559491Y-101456803D01*
X145322456Y-101472339D01*
X145317538Y-101472500D01*
X111222462Y-101472500D01*
X111217544Y-101472339D01*
X110980508Y-101456803D01*
X110970755Y-101455519D01*
X110740193Y-101409657D01*
X110730692Y-101407111D01*
X110508094Y-101331549D01*
X110499006Y-101327785D01*
X110288167Y-101223811D01*
X110279648Y-101218892D01*
X110084193Y-101088293D01*
X110076389Y-101082305D01*
X109899648Y-100927306D01*
X109892693Y-100920351D01*
X109859321Y-100882298D01*
X109737691Y-100743606D01*
X109731706Y-100735806D01*
X109601107Y-100540351D01*
X109596188Y-100531832D01*
X109492210Y-100320984D01*
X109488454Y-100311914D01*
X109412885Y-100089298D01*
X109410344Y-100079815D01*
X109364478Y-99849235D01*
X109363197Y-99839500D01*
X109347661Y-99602456D01*
X109347500Y-99597538D01*
X109347500Y-92776963D01*
X109749500Y-92776963D01*
X109749500Y-92776964D01*
X109749500Y-92776969D01*
X109749500Y-95183028D01*
X109760114Y-95302417D01*
X109816092Y-95498051D01*
X109816094Y-95498056D01*
X109910295Y-95678397D01*
X109910300Y-95678403D01*
X109910302Y-95678407D01*
X109968057Y-95749239D01*
X110038890Y-95836109D01*
X110109723Y-95893864D01*
X110196593Y-95964698D01*
X110196596Y-95964700D01*
X110196602Y-95964704D01*
X110376943Y-96058905D01*
X110376951Y-96058909D01*
X110572582Y-96114886D01*
X110691963Y-96125500D01*
X111920540Y-96125499D01*
X111940003Y-96128061D01*
X112086895Y-96167421D01*
X112376133Y-96205500D01*
X112376136Y-96205500D01*
X144157864Y-96205500D01*
X144157867Y-96205500D01*
X144447105Y-96167421D01*
X144593998Y-96128061D01*
X144613461Y-96125499D01*
X145848029Y-96125499D01*
X145848036Y-96125499D01*
X145967418Y-96114886D01*
X146163049Y-96058909D01*
X146218369Y-96030011D01*
X146343397Y-95964704D01*
X146343400Y-95964701D01*
X146343407Y-95964698D01*
X146501109Y-95836109D01*
X146629698Y-95678407D01*
X146629701Y-95678400D01*
X146629704Y-95678397D01*
X146723905Y-95498056D01*
X146723909Y-95498049D01*
X146779886Y-95302418D01*
X146790500Y-95183037D01*
X146790499Y-92776964D01*
X146779886Y-92657582D01*
X146723909Y-92461951D01*
X146723905Y-92461943D01*
X146629704Y-92281602D01*
X146629700Y-92281596D01*
X146629698Y-92281593D01*
X146558864Y-92194723D01*
X146501109Y-92123890D01*
X146414239Y-92053057D01*
X146343407Y-91995302D01*
X146343403Y-91995300D01*
X146343397Y-91995295D01*
X146163056Y-91901094D01*
X146163051Y-91901092D01*
X146163050Y-91901091D01*
X146163049Y-91901091D01*
X145967418Y-91845114D01*
X145848037Y-91834500D01*
X145848030Y-91834500D01*
X144613458Y-91834500D01*
X144593995Y-91831938D01*
X144447109Y-91792580D01*
X144447108Y-91792579D01*
X144447105Y-91792579D01*
X144157867Y-91754500D01*
X112376133Y-91754500D01*
X112086895Y-91792579D01*
X112086891Y-91792580D01*
X112086889Y-91792580D01*
X111940001Y-91831938D01*
X111920538Y-91834500D01*
X110691971Y-91834500D01*
X110572582Y-91845114D01*
X110376948Y-91901092D01*
X110376943Y-91901094D01*
X110196602Y-91995295D01*
X110196593Y-91995302D01*
X110038890Y-92123890D01*
X109910302Y-92281593D01*
X109910295Y-92281602D01*
X109816094Y-92461943D01*
X109816092Y-92461948D01*
X109816091Y-92461950D01*
X109816091Y-92461951D01*
X109760114Y-92657582D01*
X109749500Y-92776963D01*
X109347500Y-92776963D01*
X109347500Y-88362461D01*
X109347661Y-88357543D01*
X109356639Y-88220556D01*
X109363197Y-88120497D01*
X109364478Y-88110766D01*
X109410345Y-87880180D01*
X109412884Y-87870704D01*
X109488455Y-87648079D01*
X109492207Y-87639021D01*
X109596193Y-87428157D01*
X109601101Y-87419657D01*
X109731714Y-87224181D01*
X109737685Y-87216400D01*
X109892699Y-87039641D01*
X109899641Y-87032699D01*
X110076400Y-86877685D01*
X110084181Y-86871714D01*
X110279657Y-86741101D01*
X110288157Y-86736193D01*
X110499021Y-86632207D01*
X110508079Y-86628455D01*
X110730704Y-86552884D01*
X110740180Y-86550345D01*
X110970766Y-86504478D01*
X110980497Y-86503197D01*
X111217544Y-86487661D01*
X111222462Y-86487500D01*
X111249101Y-86487500D01*
X145290899Y-86487500D01*
X145317538Y-86487500D01*
X145322456Y-86487661D01*
G37*
%TD.AperFunction*%
%TD*%
M02*
