%TF.GenerationSoftware,KiCad,Pcbnew,8.0.3*%
%TF.CreationDate,2024-07-05T12:35:55-05:00*%
%TF.ProjectId,Bald Probe Test Fixture rev1,42616c64-2050-4726-9f62-652054657374,1*%
%TF.SameCoordinates,Original*%
%TF.FileFunction,Legend,Bot*%
%TF.FilePolarity,Positive*%
%FSLAX46Y46*%
G04 Gerber Fmt 4.6, Leading zero omitted, Abs format (unit mm)*
G04 Created by KiCad (PCBNEW 8.0.3) date 2024-07-05 12:35:55*
%MOMM*%
%LPD*%
G01*
G04 APERTURE LIST*
%ADD10C,0.000000*%
G04 APERTURE END LIST*
D10*
%TO.C,kibuzzard-66881A8D*%
G36*
X118635105Y-94815218D02*
G01*
X118681955Y-94850759D01*
X118711034Y-94902456D01*
X118724766Y-94962229D01*
X118421050Y-94962229D01*
X118429128Y-94903263D01*
X118454976Y-94852375D01*
X118500210Y-94816026D01*
X118568061Y-94802294D01*
X118635105Y-94815218D01*
G37*
G36*
X119442859Y-92795832D02*
G01*
X119489709Y-92831373D01*
X119518788Y-92883069D01*
X119532520Y-92942843D01*
X119228805Y-92942843D01*
X119236882Y-92883877D01*
X119262730Y-92832989D01*
X119307964Y-92796640D01*
X119375816Y-92782908D01*
X119442859Y-92795832D01*
G37*
G36*
X119442859Y-94815218D02*
G01*
X119489709Y-94850759D01*
X119518788Y-94902456D01*
X119532520Y-94962229D01*
X119228805Y-94962229D01*
X119236882Y-94903263D01*
X119262730Y-94852375D01*
X119307964Y-94816026D01*
X119375816Y-94802294D01*
X119442859Y-94815218D01*
G37*
G36*
X123481632Y-94815218D02*
G01*
X123528481Y-94850759D01*
X123557561Y-94902456D01*
X123571292Y-94962229D01*
X123267577Y-94962229D01*
X123275654Y-94903263D01*
X123301502Y-94852375D01*
X123346737Y-94816026D01*
X123414588Y-94802294D01*
X123481632Y-94815218D01*
G37*
G36*
X127520404Y-92795832D02*
G01*
X127567254Y-92831373D01*
X127596333Y-92883069D01*
X127610065Y-92942843D01*
X127306349Y-92942843D01*
X127314427Y-92883877D01*
X127340275Y-92832989D01*
X127385509Y-92796640D01*
X127453360Y-92782908D01*
X127520404Y-92795832D01*
G37*
G36*
X129943667Y-92795832D02*
G01*
X129990517Y-92831373D01*
X130019596Y-92883069D01*
X130033328Y-92942843D01*
X129729612Y-92942843D01*
X129737690Y-92883877D01*
X129763538Y-92832989D01*
X129808772Y-92796640D01*
X129876624Y-92782908D01*
X129943667Y-92795832D01*
G37*
G36*
X133174685Y-94815218D02*
G01*
X133221535Y-94850759D01*
X133250614Y-94902456D01*
X133264346Y-94962229D01*
X132960630Y-94962229D01*
X132968708Y-94903263D01*
X132994556Y-94852375D01*
X133039790Y-94816026D01*
X133107641Y-94802294D01*
X133174685Y-94815218D01*
G37*
G36*
X137185994Y-94715864D02*
G01*
X137211842Y-94816026D01*
X137234459Y-94915380D01*
X137254653Y-95018772D01*
X137059176Y-95018772D01*
X137078562Y-94915380D01*
X137100372Y-94816026D01*
X137126220Y-94715864D01*
X137156107Y-94608433D01*
X137185994Y-94715864D01*
G37*
G36*
X137228805Y-92558352D02*
G01*
X137272423Y-92563199D01*
X137272423Y-92792601D01*
X137194879Y-92792601D01*
X137080178Y-92759483D01*
X137041406Y-92668207D01*
X137052714Y-92610856D01*
X137083409Y-92576931D01*
X137128643Y-92560775D01*
X137181955Y-92556737D01*
X137228805Y-92558352D01*
G37*
G36*
X137272423Y-93228788D02*
G01*
X137226381Y-93233635D01*
X137177108Y-93235250D01*
X137110872Y-93229596D01*
X137053522Y-93208595D01*
X137012326Y-93164976D01*
X136996171Y-93093086D01*
X137042213Y-92988885D01*
X137165800Y-92957383D01*
X137272423Y-92957383D01*
X137272423Y-93228788D01*
G37*
G36*
X121878239Y-94824014D02*
G01*
X121936397Y-94894019D01*
X121955784Y-95010695D01*
X121947302Y-95093288D01*
X121921858Y-95153667D01*
X121815234Y-95202940D01*
X121754653Y-95194863D01*
X121703764Y-95173861D01*
X121703764Y-94808756D01*
X121744152Y-94802294D01*
X121781309Y-94800679D01*
X121878239Y-94824014D01*
G37*
G36*
X125884701Y-95089047D02*
G01*
X125935590Y-95102779D01*
X125970323Y-95130242D01*
X125983247Y-95177092D01*
X125944475Y-95250598D01*
X125844313Y-95272407D01*
X125781309Y-95271599D01*
X125727997Y-95267561D01*
X125727997Y-95093086D01*
X125774847Y-95087431D01*
X125824927Y-95085008D01*
X125884701Y-95089047D01*
G37*
G36*
X136385509Y-93069661D02*
G01*
X136436397Y-93083393D01*
X136471131Y-93110856D01*
X136484055Y-93157706D01*
X136445283Y-93231212D01*
X136345121Y-93253021D01*
X136282116Y-93252213D01*
X136228805Y-93248174D01*
X136228805Y-93073700D01*
X136275654Y-93068045D01*
X136325735Y-93065622D01*
X136385509Y-93069661D01*
G37*
G36*
X127375816Y-94875800D02*
G01*
X127406511Y-94911341D01*
X127422666Y-94960614D01*
X127427512Y-95015541D01*
X127423473Y-95078546D01*
X127408126Y-95136704D01*
X127376624Y-95179515D01*
X127324120Y-95196478D01*
X127278885Y-95191632D01*
X127278885Y-94868530D01*
X127303118Y-94863683D01*
X127325735Y-94862068D01*
X127375816Y-94875800D01*
G37*
G36*
X133184378Y-92557544D02*
G01*
X133233651Y-92561583D01*
X133233651Y-92884685D01*
X133152876Y-92884685D01*
X133069273Y-92875194D01*
X133009095Y-92846721D01*
X132972746Y-92795226D01*
X132960630Y-92716672D01*
X132972544Y-92642157D01*
X133008288Y-92593086D01*
X133063821Y-92565824D01*
X133135105Y-92556737D01*
X133184378Y-92557544D01*
G37*
G36*
X124312811Y-94824507D02*
G01*
X124354814Y-94866914D01*
X124379047Y-94935977D01*
X124387124Y-95030081D01*
X124377633Y-95122569D01*
X124349160Y-95196478D01*
X124299685Y-95244943D01*
X124227189Y-95261099D01*
X124181955Y-95259483D01*
X124138336Y-95254637D01*
X124138336Y-94841066D01*
X124190032Y-94819257D01*
X124251422Y-94810372D01*
X124312811Y-94824507D01*
G37*
G36*
X126704572Y-94819257D02*
G01*
X126758691Y-94841066D01*
X126758691Y-95253021D01*
X126711034Y-95259483D01*
X126668223Y-95261099D01*
X126598756Y-95247973D01*
X126545444Y-95208595D01*
X126511519Y-95137714D01*
X126500210Y-95030081D01*
X126508893Y-94935977D01*
X126534943Y-94866914D01*
X126578764Y-94824507D01*
X126640759Y-94810372D01*
X126704572Y-94819257D01*
G37*
G36*
X130743344Y-92799871D02*
G01*
X130797464Y-92821680D01*
X130797464Y-93233635D01*
X130749806Y-93240097D01*
X130706995Y-93241712D01*
X130637528Y-93228586D01*
X130584216Y-93189208D01*
X130550291Y-93118328D01*
X130538982Y-93010695D01*
X130547666Y-92916591D01*
X130573716Y-92847528D01*
X130617536Y-92805121D01*
X130679532Y-92790985D01*
X130743344Y-92799871D01*
G37*
G36*
X134813619Y-92805121D02*
G01*
X134855622Y-92847528D01*
X134879855Y-92916591D01*
X134887932Y-93010695D01*
X134878441Y-93103183D01*
X134849968Y-93177092D01*
X134800493Y-93225557D01*
X134727997Y-93241712D01*
X134682763Y-93240097D01*
X134639144Y-93235250D01*
X134639144Y-92821680D01*
X134690840Y-92799871D01*
X134752229Y-92790985D01*
X134813619Y-92805121D01*
G37*
G36*
X131566648Y-92804919D02*
G01*
X131615719Y-92851567D01*
X131645404Y-92923659D01*
X131655299Y-93015541D01*
X131646212Y-93107625D01*
X131618950Y-93180323D01*
X131571494Y-93227577D01*
X131501826Y-93243328D01*
X131433772Y-93227577D01*
X131384701Y-93180323D01*
X131355016Y-93107625D01*
X131345121Y-93015541D01*
X131354208Y-92923659D01*
X131381470Y-92851567D01*
X131428926Y-92804919D01*
X131498595Y-92789370D01*
X131566648Y-92804919D01*
G37*
G36*
X139219523Y-91738223D02*
G01*
X139329389Y-91746327D01*
X139438725Y-91759813D01*
X139547268Y-91778647D01*
X139654756Y-91802784D01*
X139760930Y-91832166D01*
X139865534Y-91866723D01*
X139968317Y-91906371D01*
X140069030Y-91951014D01*
X140167432Y-92000545D01*
X140263285Y-92054845D01*
X140356358Y-92113783D01*
X140446427Y-92177216D01*
X140533275Y-92244993D01*
X140616692Y-92316950D01*
X140696479Y-92392913D01*
X140772442Y-92472699D01*
X140844398Y-92556117D01*
X140912175Y-92642965D01*
X140975609Y-92733034D01*
X141034546Y-92826107D01*
X141088846Y-92921959D01*
X141138378Y-93020361D01*
X141183021Y-93121075D01*
X141222669Y-93223857D01*
X141257225Y-93328462D01*
X141286608Y-93434636D01*
X141310745Y-93542124D01*
X141329579Y-93650666D01*
X141343064Y-93760002D01*
X141351168Y-93869869D01*
X141353872Y-93980000D01*
X141351168Y-94090131D01*
X141343064Y-94199998D01*
X141329579Y-94309334D01*
X141310745Y-94417876D01*
X141286608Y-94525364D01*
X141257225Y-94631538D01*
X141222669Y-94736143D01*
X141183021Y-94838925D01*
X141138378Y-94939639D01*
X141088846Y-95038041D01*
X141034546Y-95133893D01*
X140975609Y-95226966D01*
X140912175Y-95317035D01*
X140844398Y-95403883D01*
X140772442Y-95487301D01*
X140696479Y-95567087D01*
X140616692Y-95643050D01*
X140533275Y-95715007D01*
X140446427Y-95782784D01*
X140356358Y-95846217D01*
X140263285Y-95905155D01*
X140167432Y-95959455D01*
X140069030Y-96008986D01*
X139968317Y-96053629D01*
X139865534Y-96093277D01*
X139760930Y-96127834D01*
X139654756Y-96157216D01*
X139547268Y-96181353D01*
X139438725Y-96200187D01*
X139329389Y-96213673D01*
X139219523Y-96221777D01*
X139109392Y-96224480D01*
X139109257Y-96224480D01*
X138799079Y-96224480D01*
X137595525Y-96224480D01*
X136978401Y-96224480D01*
X136359661Y-96224480D01*
X135538982Y-96224480D01*
X134729612Y-96224480D01*
X133983247Y-96224480D01*
X133052714Y-96224480D01*
X132398433Y-96224480D01*
X131498595Y-96224480D01*
X130354814Y-96224480D01*
X129821696Y-96224480D01*
X129076947Y-96224480D01*
X128169031Y-96224480D01*
X127333813Y-96224480D01*
X126663376Y-96224480D01*
X125858853Y-96224480D01*
X124910549Y-96224480D01*
X124228805Y-96224480D01*
X123359661Y-96224480D01*
X122306349Y-96224480D01*
X122241729Y-96224480D01*
X121881470Y-96224480D01*
X120863700Y-96224480D01*
X119883086Y-96224480D01*
X119320889Y-96224480D01*
X118513134Y-96224480D01*
X117828158Y-96224480D01*
X117430743Y-96224480D01*
X117430609Y-96224480D01*
X117320477Y-96221777D01*
X117210611Y-96213673D01*
X117101275Y-96200187D01*
X116992732Y-96181353D01*
X116885244Y-96157216D01*
X116779070Y-96127834D01*
X116674466Y-96093277D01*
X116571683Y-96053629D01*
X116470970Y-96008986D01*
X116372568Y-95959455D01*
X116276715Y-95905155D01*
X116183642Y-95846217D01*
X116093573Y-95782784D01*
X116006725Y-95715007D01*
X115923308Y-95643050D01*
X115843521Y-95567087D01*
X115767558Y-95487301D01*
X115695602Y-95403883D01*
X115627825Y-95317035D01*
X115564391Y-95226966D01*
X115505454Y-95133894D01*
X115451154Y-95038041D01*
X115401622Y-94939639D01*
X115356979Y-94838925D01*
X115317331Y-94736143D01*
X115296489Y-94673053D01*
X117430743Y-94673053D01*
X117466284Y-94857221D01*
X117512326Y-94847528D01*
X117566446Y-94838643D01*
X117619758Y-94832989D01*
X117663376Y-94831373D01*
X117745767Y-94835412D01*
X117828158Y-94850759D01*
X117828158Y-95414572D01*
X118028481Y-95414572D01*
X118028481Y-95025234D01*
X118228805Y-95025234D01*
X118229612Y-95065622D01*
X118232036Y-95099548D01*
X118724766Y-95099548D01*
X118709418Y-95165985D01*
X118663376Y-95216672D01*
X118593102Y-95248780D01*
X118505057Y-95259483D01*
X118391163Y-95246559D01*
X118299887Y-95220711D01*
X118272423Y-95390339D01*
X118382278Y-95420226D01*
X118513134Y-95432342D01*
X118605016Y-95426082D01*
X118686801Y-95407302D01*
X118757884Y-95376204D01*
X118817658Y-95332989D01*
X118865517Y-95277859D01*
X118900856Y-95211018D01*
X118922666Y-95132262D01*
X118929935Y-95041389D01*
X118928618Y-95025234D01*
X119036559Y-95025234D01*
X119037367Y-95065622D01*
X119039790Y-95099548D01*
X119532520Y-95099548D01*
X119517173Y-95165985D01*
X119471131Y-95216672D01*
X119400856Y-95248780D01*
X119312811Y-95259483D01*
X119198918Y-95246559D01*
X119107641Y-95220711D01*
X119080178Y-95390339D01*
X119190032Y-95420226D01*
X119320889Y-95432342D01*
X119412771Y-95426082D01*
X119494556Y-95407302D01*
X119565638Y-95376204D01*
X119625412Y-95332989D01*
X119673271Y-95277859D01*
X119708611Y-95211018D01*
X119730420Y-95132262D01*
X119737690Y-95041389D01*
X119733211Y-94986462D01*
X119883086Y-94986462D01*
X119883086Y-95414572D01*
X120081793Y-95414572D01*
X120081793Y-95012310D01*
X120087851Y-94920630D01*
X120106026Y-94858837D01*
X120204572Y-94811987D01*
X120248998Y-94813603D01*
X120295040Y-94818449D01*
X120295040Y-95414572D01*
X120493748Y-95414572D01*
X120493748Y-95382262D01*
X120648837Y-95382262D01*
X120764346Y-95421842D01*
X120863700Y-95432342D01*
X120934984Y-95426688D01*
X120993748Y-95409725D01*
X121077754Y-95344297D01*
X121122181Y-95240097D01*
X121131874Y-95174265D01*
X121135105Y-95099548D01*
X121135105Y-94820065D01*
X121345121Y-94820065D01*
X121345121Y-94679515D01*
X121503441Y-94679515D01*
X121503441Y-95322488D01*
X121513403Y-95435574D01*
X121543290Y-95527119D01*
X121593102Y-95597124D01*
X121664992Y-95646487D01*
X121761115Y-95676105D01*
X121881470Y-95685977D01*
X121951139Y-95682342D01*
X122017981Y-95671438D01*
X122143183Y-95637512D01*
X122106026Y-95469499D01*
X122007480Y-95502617D01*
X121878239Y-95517964D01*
X121792617Y-95505848D01*
X121739305Y-95472730D01*
X121711842Y-95423457D01*
X121703764Y-95362876D01*
X121703764Y-95332181D01*
X121780501Y-95356414D01*
X121855622Y-95364491D01*
X121946719Y-95354080D01*
X122021840Y-95322847D01*
X122080985Y-95270792D01*
X122123617Y-95200248D01*
X122149196Y-95113549D01*
X122157722Y-95010695D01*
X122155287Y-94986462D01*
X122306349Y-94986462D01*
X122306349Y-95414572D01*
X122505057Y-95414572D01*
X122505057Y-95012310D01*
X122511115Y-94920630D01*
X122529289Y-94858837D01*
X122627835Y-94811987D01*
X122672262Y-94813603D01*
X122718304Y-94818449D01*
X122718304Y-95414572D01*
X122917011Y-95414572D01*
X122917011Y-95025234D01*
X123075331Y-95025234D01*
X123076139Y-95065622D01*
X123078562Y-95099548D01*
X123571292Y-95099548D01*
X123555945Y-95165985D01*
X123509903Y-95216672D01*
X123439628Y-95248780D01*
X123351583Y-95259483D01*
X123237690Y-95246559D01*
X123146414Y-95220711D01*
X123118950Y-95390339D01*
X123228805Y-95420226D01*
X123359661Y-95432342D01*
X123451543Y-95426082D01*
X123533328Y-95407302D01*
X123568407Y-95391955D01*
X123939628Y-95391955D01*
X124000614Y-95408110D01*
X124073716Y-95421034D01*
X124152068Y-95429515D01*
X124228805Y-95432342D01*
X124337672Y-95420675D01*
X124427333Y-95385672D01*
X124431451Y-95382262D01*
X124687609Y-95382262D01*
X124709418Y-95393570D01*
X124753845Y-95410533D01*
X124820889Y-95425880D01*
X124910549Y-95432342D01*
X125029289Y-95411947D01*
X125110872Y-95350759D01*
X125158126Y-95250396D01*
X125173877Y-95112472D01*
X125173877Y-94944459D01*
X125537367Y-94944459D01*
X125537367Y-95396801D01*
X125666607Y-95419418D01*
X125757480Y-95429111D01*
X125858853Y-95432342D01*
X125990517Y-95419418D01*
X126091486Y-95376607D01*
X126156107Y-95299063D01*
X126178724Y-95181939D01*
X126152876Y-95070468D01*
X126118914Y-95034927D01*
X126298271Y-95034927D01*
X126304330Y-95121155D01*
X126322504Y-95198901D01*
X126352391Y-95266955D01*
X126393586Y-95324103D01*
X126445687Y-95369943D01*
X126508288Y-95404071D01*
X126580985Y-95425275D01*
X126663376Y-95432342D01*
X126741729Y-95429515D01*
X126821696Y-95421034D01*
X126896010Y-95408110D01*
X126957399Y-95391955D01*
X126957399Y-94760291D01*
X127109257Y-94760291D01*
X127109257Y-95325719D01*
X127210226Y-95352375D01*
X127309580Y-95361260D01*
X127423473Y-95342682D01*
X127514750Y-95284523D01*
X127575331Y-95181131D01*
X127591688Y-95110250D01*
X127597141Y-95025234D01*
X127585024Y-94897609D01*
X127543829Y-94793409D01*
X127468708Y-94723134D01*
X127354814Y-94697286D01*
X127278885Y-94705363D01*
X127278885Y-94679515D01*
X127317658Y-94575315D01*
X127430743Y-94532504D01*
X127531712Y-94555121D01*
X127614103Y-94634281D01*
X127645202Y-94700315D01*
X127669031Y-94785331D01*
X127684176Y-94892157D01*
X127689225Y-95023619D01*
X127684984Y-95130242D01*
X127672262Y-95223942D01*
X127649241Y-95304111D01*
X127614103Y-95370145D01*
X127566042Y-95422044D01*
X127504249Y-95459806D01*
X127427310Y-95482827D01*
X127333813Y-95490501D01*
X127214265Y-95482423D01*
X127157722Y-95469499D01*
X127139952Y-95610048D01*
X127190032Y-95620549D01*
X127235267Y-95627011D01*
X127281309Y-95631050D01*
X127333813Y-95632666D01*
X127436801Y-95625396D01*
X127532520Y-95603586D01*
X127618344Y-95563805D01*
X127691648Y-95502617D01*
X127751624Y-95419015D01*
X127797464Y-95311987D01*
X127813062Y-95249790D01*
X130354814Y-95249790D01*
X130354814Y-95414572D01*
X130962246Y-95414572D01*
X130962246Y-95249790D01*
X130752229Y-95249790D01*
X130752229Y-94690824D01*
X130855622Y-94748174D01*
X130954168Y-94787754D01*
X131006117Y-94655283D01*
X131926704Y-94655283D01*
X131961539Y-94767712D01*
X131998191Y-94875598D01*
X132036660Y-94978940D01*
X132076947Y-95077738D01*
X132130797Y-95200966D01*
X132182493Y-95313244D01*
X132232036Y-95414572D01*
X132398433Y-95414572D01*
X132447167Y-95313244D01*
X132496441Y-95200966D01*
X132546252Y-95077738D01*
X132565971Y-95025234D01*
X132768385Y-95025234D01*
X132769192Y-95065622D01*
X132771616Y-95099548D01*
X133264346Y-95099548D01*
X133248998Y-95165985D01*
X133202956Y-95216672D01*
X133132682Y-95248780D01*
X133044637Y-95259483D01*
X132930743Y-95246559D01*
X132839467Y-95220711D01*
X132812003Y-95390339D01*
X132921858Y-95420226D01*
X133052714Y-95432342D01*
X133144596Y-95426082D01*
X133226381Y-95407302D01*
X133297464Y-95376204D01*
X133357237Y-95332989D01*
X133405097Y-95277859D01*
X133440436Y-95211018D01*
X133462246Y-95132262D01*
X133469515Y-95041389D01*
X133461842Y-94947286D01*
X133438821Y-94865299D01*
X133403279Y-94795630D01*
X133358045Y-94738481D01*
X133304330Y-94693853D01*
X133264822Y-94673053D01*
X133585832Y-94673053D01*
X133621373Y-94857221D01*
X133667415Y-94847528D01*
X133721535Y-94838643D01*
X133774847Y-94832989D01*
X133818465Y-94831373D01*
X133900856Y-94835412D01*
X133983247Y-94850759D01*
X133983247Y-95414572D01*
X134183570Y-95414572D01*
X136765153Y-95414572D01*
X136978401Y-95414572D01*
X137025250Y-95183554D01*
X137291809Y-95183554D01*
X137337044Y-95414572D01*
X137543829Y-95414572D01*
X137595525Y-95414572D01*
X137778078Y-95414572D01*
X137768385Y-94637512D01*
X137891163Y-95060775D01*
X138036559Y-95060775D01*
X138154491Y-94637512D01*
X138146414Y-95414572D01*
X138328966Y-95414572D01*
X138323918Y-95289370D01*
X138318465Y-95159321D01*
X138317677Y-95141551D01*
X138430743Y-95141551D01*
X138453562Y-95266147D01*
X138522019Y-95358837D01*
X138593371Y-95401468D01*
X138685724Y-95427047D01*
X138799079Y-95435574D01*
X138910953Y-95428910D01*
X138997787Y-95408918D01*
X139109257Y-95359645D01*
X139051099Y-95198094D01*
X138946898Y-95246559D01*
X138879653Y-95263522D01*
X138799079Y-95269176D01*
X138715880Y-95258675D01*
X138663376Y-95229596D01*
X138636721Y-95187593D01*
X138629451Y-95139935D01*
X138647221Y-95085008D01*
X138692456Y-95042197D01*
X138753845Y-95008271D01*
X138821696Y-94980000D01*
X138915396Y-94942843D01*
X139003441Y-94889532D01*
X139068869Y-94809564D01*
X139094717Y-94690824D01*
X139071898Y-94565622D01*
X139003441Y-94471115D01*
X138934961Y-94427137D01*
X138851224Y-94400750D01*
X138752229Y-94391955D01*
X138666002Y-94397205D01*
X138591486Y-94412956D01*
X138475977Y-94459806D01*
X138534136Y-94613279D01*
X138623796Y-94574507D01*
X138737690Y-94558352D01*
X138825645Y-94571097D01*
X138878419Y-94609330D01*
X138896010Y-94673053D01*
X138879855Y-94723942D01*
X138838659Y-94762714D01*
X138782116Y-94792601D01*
X138719919Y-94816834D01*
X138622181Y-94856414D01*
X138528481Y-94914572D01*
X138458207Y-95005040D01*
X138437609Y-95066228D01*
X138430743Y-95141551D01*
X138317677Y-95141551D01*
X138312609Y-95027254D01*
X138306349Y-94895994D01*
X138299281Y-94767157D01*
X138291002Y-94642359D01*
X138281511Y-94524023D01*
X138270808Y-94414572D01*
X138106026Y-94414572D01*
X138077754Y-94501809D01*
X138041406Y-94616511D01*
X138002633Y-94740905D01*
X137965477Y-94857221D01*
X137925089Y-94733635D01*
X137884701Y-94610856D01*
X137849160Y-94500194D01*
X137820081Y-94414572D01*
X137655299Y-94414572D01*
X137644192Y-94543813D01*
X137633490Y-94669822D01*
X137623796Y-94793611D01*
X137615719Y-94916187D01*
X137609055Y-95038562D01*
X137603603Y-95161745D01*
X137599160Y-95286745D01*
X137595525Y-95414572D01*
X137543829Y-95414572D01*
X137515331Y-95298417D01*
X137486704Y-95186462D01*
X137457948Y-95078708D01*
X137429063Y-94975153D01*
X137400048Y-94875800D01*
X137364002Y-94755798D01*
X137328562Y-94638926D01*
X137293728Y-94525184D01*
X137259499Y-94414572D01*
X137193263Y-94414572D01*
X137043021Y-94414572D01*
X137007530Y-94526092D01*
X136972141Y-94640945D01*
X136936852Y-94759130D01*
X136901664Y-94880646D01*
X136873716Y-94980840D01*
X136846090Y-95084330D01*
X136818788Y-95191115D01*
X136791809Y-95301195D01*
X136765153Y-95414572D01*
X134183570Y-95414572D01*
X134183570Y-94907302D01*
X135319273Y-94907302D01*
X135334620Y-94995347D01*
X135378239Y-95068853D01*
X135447706Y-95119742D01*
X135538982Y-95138320D01*
X135631066Y-95119742D01*
X135699725Y-95068853D01*
X135743344Y-94995347D01*
X135758691Y-94907302D01*
X135743344Y-94820065D01*
X135699725Y-94745751D01*
X135631066Y-94694863D01*
X135538982Y-94676284D01*
X135447706Y-94694863D01*
X135411357Y-94721490D01*
X135378239Y-94745751D01*
X135334620Y-94820065D01*
X135319273Y-94907302D01*
X134183570Y-94907302D01*
X134183570Y-94705363D01*
X134103401Y-94679111D01*
X134021212Y-94658514D01*
X133930945Y-94645186D01*
X133826543Y-94640743D01*
X133780501Y-94642359D01*
X133716688Y-94648013D01*
X133648029Y-94657706D01*
X133585832Y-94673053D01*
X133264822Y-94673053D01*
X133243344Y-94661745D01*
X133233651Y-94658873D01*
X133177916Y-94642359D01*
X133110872Y-94635897D01*
X133007839Y-94646936D01*
X132922755Y-94680054D01*
X132855622Y-94735250D01*
X132807157Y-94811628D01*
X132778078Y-94908289D01*
X132768385Y-95025234D01*
X132565971Y-95025234D01*
X132583358Y-94978940D01*
X132619556Y-94875598D01*
X132654845Y-94767712D01*
X132689225Y-94655283D01*
X132480824Y-94655283D01*
X132464871Y-94718691D01*
X132446090Y-94786139D01*
X132425291Y-94855808D01*
X132403279Y-94925880D01*
X132380460Y-94995145D01*
X132367738Y-95031984D01*
X132357237Y-95062391D01*
X132312811Y-95183554D01*
X132265961Y-95062391D01*
X132240315Y-94995145D01*
X132215073Y-94925880D01*
X132190436Y-94855808D01*
X132166607Y-94786139D01*
X132145404Y-94718691D01*
X132128643Y-94655283D01*
X131926704Y-94655283D01*
X131006117Y-94655283D01*
X131018788Y-94622973D01*
X130934782Y-94585816D01*
X130844313Y-94535735D01*
X130758691Y-94477577D01*
X130702149Y-94426294D01*
X130689225Y-94414572D01*
X130553522Y-94414572D01*
X130553522Y-95249790D01*
X130354814Y-95249790D01*
X127813062Y-95249790D01*
X127819004Y-95226096D01*
X127831928Y-95126742D01*
X127836236Y-95013926D01*
X127832673Y-94907302D01*
X128857237Y-94907302D01*
X128872585Y-94995347D01*
X128916204Y-95068853D01*
X128985670Y-95119742D01*
X129076947Y-95138320D01*
X129169031Y-95119742D01*
X129237690Y-95068853D01*
X129281309Y-94995347D01*
X129296656Y-94907302D01*
X129281309Y-94820065D01*
X129237690Y-94745751D01*
X129169031Y-94694863D01*
X129076947Y-94676284D01*
X128985670Y-94694863D01*
X128916204Y-94745751D01*
X128872585Y-94820065D01*
X128857237Y-94907302D01*
X127832673Y-94907302D01*
X127832556Y-94903802D01*
X127821517Y-94806064D01*
X127803118Y-94720711D01*
X127764144Y-94613279D01*
X127713457Y-94528465D01*
X127652876Y-94465460D01*
X127584216Y-94423457D01*
X127509499Y-94399830D01*
X127430743Y-94391955D01*
X127398433Y-94397200D01*
X127306349Y-94412149D01*
X127204572Y-94475961D01*
X127165396Y-94526244D01*
X127135105Y-94589855D01*
X127115719Y-94667601D01*
X127109257Y-94760291D01*
X126957399Y-94760291D01*
X126957399Y-94327334D01*
X126758691Y-94293409D01*
X126758691Y-94673053D01*
X126690840Y-94650662D01*
X126677916Y-94646397D01*
X126600372Y-94639128D01*
X126530501Y-94646195D01*
X126469515Y-94667399D01*
X126375008Y-94748174D01*
X126341688Y-94805727D01*
X126317658Y-94873376D01*
X126303118Y-94950113D01*
X126298271Y-95034927D01*
X126118914Y-95034927D01*
X126083409Y-94997771D01*
X125983247Y-94958191D01*
X125865315Y-94946074D01*
X125792213Y-94949305D01*
X125727997Y-94958998D01*
X125727997Y-94934766D01*
X125763538Y-94840258D01*
X125812003Y-94811785D01*
X125886317Y-94802294D01*
X125995364Y-94810372D01*
X126080178Y-94829758D01*
X126107641Y-94669822D01*
X126002633Y-94646397D01*
X125933570Y-94638522D01*
X125862084Y-94635897D01*
X125776260Y-94641349D01*
X125729612Y-94652238D01*
X125706187Y-94657706D01*
X125606834Y-94719095D01*
X125553522Y-94816026D01*
X125537367Y-94944459D01*
X125173877Y-94944459D01*
X125173877Y-94467884D01*
X125383893Y-94467884D01*
X125383893Y-94303102D01*
X124975170Y-94303102D01*
X124975170Y-95127011D01*
X124944475Y-95232019D01*
X124866931Y-95259483D01*
X124766769Y-95243328D01*
X124713457Y-95222326D01*
X124687609Y-95382262D01*
X124431451Y-95382262D01*
X124497787Y-95327334D01*
X124548496Y-95248713D01*
X124578921Y-95152859D01*
X124589063Y-95039774D01*
X124580537Y-94924624D01*
X124554958Y-94826886D01*
X124532520Y-94784608D01*
X124512326Y-94746559D01*
X124453001Y-94686875D01*
X124377342Y-94651064D01*
X124285347Y-94639128D01*
X124206187Y-94648013D01*
X124138336Y-94673053D01*
X124138336Y-94327334D01*
X123939628Y-94293409D01*
X123939628Y-95391955D01*
X123568407Y-95391955D01*
X123604410Y-95376204D01*
X123664184Y-95332989D01*
X123712044Y-95277859D01*
X123747383Y-95211018D01*
X123769192Y-95132262D01*
X123776462Y-95041389D01*
X123768788Y-94947286D01*
X123745767Y-94865299D01*
X123710226Y-94795630D01*
X123664992Y-94738481D01*
X123611276Y-94693853D01*
X123550291Y-94661745D01*
X123484863Y-94642359D01*
X123417819Y-94635897D01*
X123314786Y-94646936D01*
X123286963Y-94657766D01*
X123229702Y-94680054D01*
X123162569Y-94735250D01*
X123114103Y-94811628D01*
X123085024Y-94908289D01*
X123075331Y-95025234D01*
X122917011Y-95025234D01*
X122917011Y-94679515D01*
X122857439Y-94665380D01*
X122785347Y-94652052D01*
X122703562Y-94642359D01*
X122614911Y-94639128D01*
X122532116Y-94645388D01*
X122464669Y-94664168D01*
X122370162Y-94735250D01*
X122320889Y-94845105D01*
X122309984Y-94912351D01*
X122306349Y-94986462D01*
X122155287Y-94986462D01*
X122146234Y-94896353D01*
X122111770Y-94803192D01*
X122054330Y-94731212D01*
X121977144Y-94680054D01*
X121883445Y-94649359D01*
X121773231Y-94639128D01*
X121690840Y-94643464D01*
X121687968Y-94643615D01*
X121598038Y-94657078D01*
X121503441Y-94679515D01*
X121345121Y-94679515D01*
X121345121Y-94655283D01*
X121070485Y-94655283D01*
X120936397Y-94655283D01*
X120936397Y-95125396D01*
X120911357Y-95226365D01*
X120828158Y-95259483D01*
X120761922Y-95252213D01*
X120674685Y-95222326D01*
X120648837Y-95382262D01*
X120493748Y-95382262D01*
X120493748Y-94679515D01*
X120434176Y-94665380D01*
X120362084Y-94652052D01*
X120280299Y-94642359D01*
X120251422Y-94641306D01*
X120191648Y-94639128D01*
X120108853Y-94645388D01*
X120041406Y-94664168D01*
X119946898Y-94735250D01*
X119897625Y-94845105D01*
X119886721Y-94912351D01*
X119883086Y-94986462D01*
X119733211Y-94986462D01*
X119730016Y-94947286D01*
X119706995Y-94865299D01*
X119671454Y-94795630D01*
X119626220Y-94738481D01*
X119572504Y-94693853D01*
X119511519Y-94661745D01*
X119446090Y-94642359D01*
X119379047Y-94635897D01*
X119320889Y-94642128D01*
X119276013Y-94646936D01*
X119190930Y-94680054D01*
X119123796Y-94735250D01*
X119075331Y-94811628D01*
X119046252Y-94908289D01*
X119036559Y-95025234D01*
X118928618Y-95025234D01*
X118922262Y-94947286D01*
X118899241Y-94865299D01*
X118863700Y-94795630D01*
X118818465Y-94738481D01*
X118764750Y-94693853D01*
X118703764Y-94661745D01*
X118638336Y-94642359D01*
X118571292Y-94635897D01*
X118468259Y-94646936D01*
X118383175Y-94680054D01*
X118316042Y-94735250D01*
X118267577Y-94811628D01*
X118238498Y-94908289D01*
X118228805Y-95025234D01*
X118028481Y-95025234D01*
X118028481Y-94705363D01*
X117948312Y-94679111D01*
X117866123Y-94658514D01*
X117775856Y-94645186D01*
X117671454Y-94640743D01*
X117625412Y-94642359D01*
X117561599Y-94648013D01*
X117492940Y-94657706D01*
X117430743Y-94673053D01*
X115296489Y-94673053D01*
X115282775Y-94631538D01*
X115253392Y-94525364D01*
X115233592Y-94437189D01*
X120944475Y-94437189D01*
X120981632Y-94529273D01*
X121070485Y-94563199D01*
X121158530Y-94529273D01*
X121194879Y-94437189D01*
X121158530Y-94343489D01*
X121070485Y-94309564D01*
X120999402Y-94336704D01*
X120981632Y-94343489D01*
X120944475Y-94437189D01*
X115233592Y-94437189D01*
X115229255Y-94417876D01*
X115210421Y-94309334D01*
X115196936Y-94199998D01*
X115188832Y-94090131D01*
X115186128Y-93980000D01*
X115188832Y-93869869D01*
X115196936Y-93760002D01*
X115210421Y-93650666D01*
X115229255Y-93542124D01*
X115253392Y-93434636D01*
X115282775Y-93328462D01*
X115317331Y-93223857D01*
X115356979Y-93121075D01*
X115401622Y-93020361D01*
X115408927Y-93005848D01*
X119036559Y-93005848D01*
X119037367Y-93046236D01*
X119039790Y-93080162D01*
X119532520Y-93080162D01*
X119517173Y-93146599D01*
X119471131Y-93197286D01*
X119400856Y-93229394D01*
X119312811Y-93240097D01*
X119198918Y-93227173D01*
X119107641Y-93201325D01*
X119080178Y-93370953D01*
X119190032Y-93400840D01*
X119320889Y-93412956D01*
X119412771Y-93406696D01*
X119494556Y-93387916D01*
X119565638Y-93356817D01*
X119625412Y-93313603D01*
X119673271Y-93258473D01*
X119708611Y-93191632D01*
X119730420Y-93112876D01*
X119737690Y-93022003D01*
X119730016Y-92927900D01*
X119706995Y-92845913D01*
X119671454Y-92776244D01*
X119626220Y-92719095D01*
X119572504Y-92674467D01*
X119532997Y-92653667D01*
X119854006Y-92653667D01*
X119889548Y-92837835D01*
X119935590Y-92828142D01*
X119989709Y-92819257D01*
X120043021Y-92813603D01*
X120086640Y-92811987D01*
X120169031Y-92816026D01*
X120251422Y-92831373D01*
X120251422Y-93395186D01*
X120451745Y-93395186D01*
X120451745Y-93369338D01*
X120695687Y-93369338D01*
X120756470Y-93383877D01*
X120828966Y-93398417D01*
X120910751Y-93409321D01*
X120999402Y-93412956D01*
X121084620Y-93406494D01*
X121152876Y-93387108D01*
X121173647Y-93370953D01*
X121448514Y-93370953D01*
X121567254Y-93403263D01*
X121690840Y-93412956D01*
X121813619Y-93401648D01*
X121827022Y-93395186D01*
X122241729Y-93395186D01*
X122448514Y-93395186D01*
X122492132Y-93317237D01*
X122535751Y-93248174D01*
X122578158Y-93186785D01*
X122618142Y-93131858D01*
X122664184Y-93195670D01*
X122705380Y-93257868D01*
X122744556Y-93322892D01*
X122784540Y-93395186D01*
X122986478Y-93395186D01*
X122967423Y-93362876D01*
X123072100Y-93362876D01*
X123187609Y-93402456D01*
X123286963Y-93412956D01*
X123358247Y-93407302D01*
X123417011Y-93390339D01*
X123501018Y-93324911D01*
X123545444Y-93220711D01*
X123555137Y-93154879D01*
X123558368Y-93080162D01*
X123558368Y-92800679D01*
X123768385Y-92800679D01*
X123768385Y-92635897D01*
X123493748Y-92635897D01*
X123359661Y-92635897D01*
X123359661Y-93106010D01*
X123334620Y-93206979D01*
X123251422Y-93240097D01*
X123185186Y-93232827D01*
X123097948Y-93202940D01*
X123072100Y-93362876D01*
X122967423Y-93362876D01*
X122930743Y-93300679D01*
X122864507Y-93200517D01*
X122791809Y-93099548D01*
X122718304Y-93004233D01*
X122984863Y-92635897D01*
X122776462Y-92635897D01*
X122608449Y-92873376D01*
X122453360Y-92635897D01*
X122251422Y-92635897D01*
X122496979Y-93001002D01*
X122421050Y-93100355D01*
X122349968Y-93206171D01*
X122288578Y-93307948D01*
X122241729Y-93395186D01*
X121827022Y-93395186D01*
X121904087Y-93358029D01*
X121960630Y-93266753D01*
X121975170Y-93198700D01*
X121980016Y-93112472D01*
X121980016Y-92800679D01*
X122152876Y-92800679D01*
X122152876Y-92635897D01*
X121980016Y-92635897D01*
X121980016Y-92559968D01*
X123920242Y-92559968D01*
X124333813Y-92559968D01*
X124333813Y-92802294D01*
X123971939Y-92802294D01*
X123971939Y-92967076D01*
X124333813Y-92967076D01*
X124333813Y-93395186D01*
X124532520Y-93395186D01*
X124532520Y-93370953D01*
X125487286Y-93370953D01*
X125606026Y-93403263D01*
X125729612Y-93412956D01*
X125852391Y-93401648D01*
X125942859Y-93358029D01*
X125999402Y-93266753D01*
X126013942Y-93198700D01*
X126014702Y-93185170D01*
X126343506Y-93185170D01*
X126361276Y-93274023D01*
X126420242Y-93346721D01*
X126527674Y-93395186D01*
X126601583Y-93408514D01*
X126690840Y-93412956D01*
X126782116Y-93407302D01*
X126858853Y-93390339D01*
X126970323Y-93349952D01*
X126939628Y-93183554D01*
X126819273Y-93225557D01*
X126689225Y-93244943D01*
X126577754Y-93234443D01*
X126538982Y-93191632D01*
X126551099Y-93156090D01*
X126585024Y-93131050D01*
X126635105Y-93110856D01*
X126694071Y-93091470D01*
X126782924Y-93061583D01*
X126865315Y-93018772D01*
X126877441Y-93005848D01*
X127114103Y-93005848D01*
X127114911Y-93046236D01*
X127117334Y-93080162D01*
X127610065Y-93080162D01*
X127594717Y-93146599D01*
X127548675Y-93197286D01*
X127478401Y-93229394D01*
X127390355Y-93240097D01*
X127276462Y-93227173D01*
X127185186Y-93201325D01*
X127157722Y-93370953D01*
X127267577Y-93400840D01*
X127398433Y-93412956D01*
X127490315Y-93406696D01*
X127572100Y-93387916D01*
X127643183Y-93356817D01*
X127702956Y-93313603D01*
X127750816Y-93258473D01*
X127786155Y-93191632D01*
X127807964Y-93112876D01*
X127815234Y-93022003D01*
X127807561Y-92927900D01*
X127784540Y-92845913D01*
X127748998Y-92776244D01*
X127703764Y-92719095D01*
X127650048Y-92674467D01*
X127589063Y-92642359D01*
X127523635Y-92622973D01*
X127456591Y-92616511D01*
X127353558Y-92627550D01*
X127268474Y-92660668D01*
X127201341Y-92715864D01*
X127152876Y-92792242D01*
X127123796Y-92888903D01*
X127114103Y-93005848D01*
X126877441Y-93005848D01*
X126926704Y-92953344D01*
X126950937Y-92853990D01*
X126932359Y-92762714D01*
X126874200Y-92686785D01*
X126773231Y-92635089D01*
X126705784Y-92621155D01*
X126626220Y-92616511D01*
X126554532Y-92619338D01*
X126488094Y-92627819D01*
X126377431Y-92660129D01*
X126408126Y-92828142D01*
X126493748Y-92801486D01*
X126624604Y-92782908D01*
X126727189Y-92801486D01*
X126753845Y-92841066D01*
X126741729Y-92872569D01*
X126709418Y-92897609D01*
X126662569Y-92919418D01*
X126605218Y-92939612D01*
X126514750Y-92971922D01*
X126429935Y-93016349D01*
X126367738Y-93084200D01*
X126343506Y-93185170D01*
X126014702Y-93185170D01*
X126018788Y-93112472D01*
X126018788Y-92800679D01*
X126191648Y-92800679D01*
X126191648Y-92635897D01*
X126018788Y-92635897D01*
X126018788Y-92559968D01*
X127905703Y-92559968D01*
X128169031Y-92559968D01*
X128169031Y-93395186D01*
X128369354Y-93395186D01*
X128369354Y-93005848D01*
X129537367Y-93005848D01*
X129538174Y-93046236D01*
X129540598Y-93080162D01*
X130033328Y-93080162D01*
X130017981Y-93146599D01*
X129971939Y-93197286D01*
X129901664Y-93229394D01*
X129813619Y-93240097D01*
X129699725Y-93227173D01*
X129608449Y-93201325D01*
X129580985Y-93370953D01*
X129690840Y-93400840D01*
X129821696Y-93412956D01*
X129913578Y-93406696D01*
X129995364Y-93387916D01*
X130066446Y-93356817D01*
X130126220Y-93313603D01*
X130174079Y-93258473D01*
X130209418Y-93191632D01*
X130231228Y-93112876D01*
X130238498Y-93022003D01*
X130237971Y-93015541D01*
X130337044Y-93015541D01*
X130343102Y-93101769D01*
X130361276Y-93179515D01*
X130391163Y-93247569D01*
X130432359Y-93304717D01*
X130484459Y-93350557D01*
X130547060Y-93384685D01*
X130619758Y-93405889D01*
X130702149Y-93412956D01*
X130780501Y-93410129D01*
X130860469Y-93401648D01*
X130934782Y-93388724D01*
X130996171Y-93372569D01*
X130996171Y-93013926D01*
X131141567Y-93013926D01*
X131148029Y-93100153D01*
X131167415Y-93177900D01*
X131198514Y-93246357D01*
X131240113Y-93304717D01*
X131291607Y-93351971D01*
X131352391Y-93387108D01*
X131421656Y-93408918D01*
X131498595Y-93416187D01*
X131575533Y-93408918D01*
X131644798Y-93387108D01*
X131705784Y-93351971D01*
X131757884Y-93304717D01*
X131800089Y-93246357D01*
X131831389Y-93177900D01*
X131850775Y-93100153D01*
X131857237Y-93013926D01*
X131850574Y-92928910D01*
X131830582Y-92851567D01*
X131798675Y-92783312D01*
X131756268Y-92725557D01*
X131703966Y-92679111D01*
X131658316Y-92653667D01*
X131970323Y-92653667D01*
X132005864Y-92837835D01*
X132051906Y-92828142D01*
X132106026Y-92819257D01*
X132159338Y-92813603D01*
X132202956Y-92811987D01*
X132285347Y-92816026D01*
X132367738Y-92831373D01*
X132367738Y-93395186D01*
X132568061Y-93395186D01*
X132568061Y-92718288D01*
X132757076Y-92718288D01*
X132768833Y-92826796D01*
X132804105Y-92913226D01*
X132862892Y-92977577D01*
X132943218Y-93022003D01*
X133043111Y-93048659D01*
X133162569Y-93057544D01*
X133233651Y-93057544D01*
X133233651Y-93395186D01*
X133432359Y-93395186D01*
X133432359Y-93372569D01*
X134440436Y-93372569D01*
X134501422Y-93388724D01*
X134574523Y-93401648D01*
X134652876Y-93410129D01*
X134729612Y-93412956D01*
X134838480Y-93401289D01*
X134928140Y-93366286D01*
X134932258Y-93362876D01*
X135188417Y-93362876D01*
X135210226Y-93374184D01*
X135254653Y-93391147D01*
X135321696Y-93406494D01*
X135411357Y-93412956D01*
X135530097Y-93392561D01*
X135611680Y-93331373D01*
X135658934Y-93231010D01*
X135674685Y-93093086D01*
X135674685Y-92925073D01*
X136038174Y-92925073D01*
X136038174Y-93377415D01*
X136167415Y-93400032D01*
X136258288Y-93409725D01*
X136359661Y-93412956D01*
X136491325Y-93400032D01*
X136592294Y-93357221D01*
X136656914Y-93279677D01*
X136679532Y-93162553D01*
X136663423Y-93093086D01*
X136800695Y-93093086D01*
X136808368Y-93176082D01*
X136831389Y-93244136D01*
X136914588Y-93341066D01*
X136971939Y-93372165D01*
X137038982Y-93392763D01*
X137113498Y-93404273D01*
X137193263Y-93408110D01*
X137260711Y-93406292D01*
X137330582Y-93400840D01*
X137401260Y-93391753D01*
X137471131Y-93379031D01*
X137471131Y-92408110D01*
X137346737Y-92391147D01*
X137212649Y-92383877D01*
X137110065Y-92389733D01*
X137028481Y-92407302D01*
X136917011Y-92468691D01*
X136862084Y-92553506D01*
X136847544Y-92647205D01*
X136856228Y-92714249D01*
X136882278Y-92773215D01*
X136975170Y-92860452D01*
X136889750Y-92904071D01*
X136837044Y-92960614D01*
X136809782Y-93025234D01*
X136800695Y-93093086D01*
X136663423Y-93093086D01*
X136653683Y-93051082D01*
X136584216Y-92978384D01*
X136484055Y-92938805D01*
X136366123Y-92926688D01*
X136293021Y-92929919D01*
X136228805Y-92939612D01*
X136228805Y-92915380D01*
X136264346Y-92820872D01*
X136312811Y-92792399D01*
X136387124Y-92782908D01*
X136496171Y-92790985D01*
X136580985Y-92810372D01*
X136608449Y-92650436D01*
X136503441Y-92627011D01*
X136434378Y-92619136D01*
X136362892Y-92616511D01*
X136277068Y-92621963D01*
X136206995Y-92638320D01*
X136107641Y-92699709D01*
X136054330Y-92796640D01*
X136038174Y-92925073D01*
X135674685Y-92925073D01*
X135674685Y-92448498D01*
X135884701Y-92448498D01*
X135884701Y-92283716D01*
X135475977Y-92283716D01*
X135475977Y-93107625D01*
X135445283Y-93212633D01*
X135367738Y-93240097D01*
X135267577Y-93223942D01*
X135214265Y-93202940D01*
X135188417Y-93362876D01*
X134932258Y-93362876D01*
X134998595Y-93307948D01*
X135049304Y-93229327D01*
X135079729Y-93133473D01*
X135089871Y-93020388D01*
X135081344Y-92905238D01*
X135055766Y-92807500D01*
X135013134Y-92727173D01*
X134953809Y-92667489D01*
X134878149Y-92631678D01*
X134786155Y-92619742D01*
X134706995Y-92628627D01*
X134639144Y-92653667D01*
X134639144Y-92307948D01*
X134440436Y-92274023D01*
X134440436Y-93372569D01*
X133432359Y-93372569D01*
X133432359Y-92408110D01*
X133366931Y-92396801D01*
X133293425Y-92389532D01*
X133220727Y-92385493D01*
X133157722Y-92383877D01*
X133040149Y-92392583D01*
X132941603Y-92418700D01*
X132862084Y-92462229D01*
X132803746Y-92525504D01*
X132768744Y-92610856D01*
X132757076Y-92718288D01*
X132568061Y-92718288D01*
X132568061Y-92685977D01*
X132487892Y-92659725D01*
X132405703Y-92639128D01*
X132315436Y-92625800D01*
X132211034Y-92621357D01*
X132164992Y-92622973D01*
X132101179Y-92628627D01*
X132032520Y-92638320D01*
X131970323Y-92653667D01*
X131658316Y-92653667D01*
X131642375Y-92644782D01*
X131573312Y-92623578D01*
X131498595Y-92616511D01*
X131422868Y-92623578D01*
X131354006Y-92644782D01*
X131293021Y-92679111D01*
X131240921Y-92725557D01*
X131198716Y-92783312D01*
X131167415Y-92851567D01*
X131148029Y-92928910D01*
X131141567Y-93013926D01*
X130996171Y-93013926D01*
X130996171Y-92307948D01*
X130797464Y-92274023D01*
X130797464Y-92653667D01*
X130716688Y-92627011D01*
X130639144Y-92619742D01*
X130569273Y-92626809D01*
X130508288Y-92648013D01*
X130413780Y-92728788D01*
X130380460Y-92786341D01*
X130356430Y-92853990D01*
X130341890Y-92930727D01*
X130337044Y-93015541D01*
X130237971Y-93015541D01*
X130230824Y-92927900D01*
X130207803Y-92845913D01*
X130172262Y-92776244D01*
X130127027Y-92719095D01*
X130073312Y-92674467D01*
X130012326Y-92642359D01*
X129946898Y-92622973D01*
X129879855Y-92616511D01*
X129776821Y-92627550D01*
X129691738Y-92660668D01*
X129624604Y-92715864D01*
X129576139Y-92792242D01*
X129547060Y-92888903D01*
X129537367Y-93005848D01*
X128369354Y-93005848D01*
X128369354Y-92559968D01*
X128632682Y-92559968D01*
X128632682Y-92395186D01*
X127905703Y-92395186D01*
X127905703Y-92559968D01*
X126018788Y-92559968D01*
X126018788Y-92445267D01*
X125820081Y-92412956D01*
X125820081Y-92635897D01*
X125501826Y-92635897D01*
X125501826Y-92800679D01*
X125820081Y-92800679D01*
X125820081Y-93107625D01*
X125812003Y-93175477D01*
X125789386Y-93215864D01*
X125753845Y-93235250D01*
X125706995Y-93240097D01*
X125656107Y-93238481D01*
X125610872Y-93232827D01*
X125565638Y-93220711D01*
X125514750Y-93199709D01*
X125487286Y-93370953D01*
X124532520Y-93370953D01*
X124532520Y-92395186D01*
X123920242Y-92395186D01*
X123920242Y-92559968D01*
X121980016Y-92559968D01*
X121980016Y-92445267D01*
X121811117Y-92417803D01*
X123367738Y-92417803D01*
X123404895Y-92509887D01*
X123493748Y-92543813D01*
X123581793Y-92509887D01*
X123618142Y-92417803D01*
X123581793Y-92324103D01*
X123493748Y-92290178D01*
X123404895Y-92324103D01*
X123367738Y-92417803D01*
X121811117Y-92417803D01*
X121781309Y-92412956D01*
X121781309Y-92635897D01*
X121463053Y-92635897D01*
X121463053Y-92800679D01*
X121781309Y-92800679D01*
X121781309Y-93107625D01*
X121773231Y-93175477D01*
X121750614Y-93215864D01*
X121715073Y-93235250D01*
X121668223Y-93240097D01*
X121617334Y-93238481D01*
X121572100Y-93232827D01*
X121526866Y-93220711D01*
X121475977Y-93199709D01*
X121448514Y-93370953D01*
X121173647Y-93370953D01*
X121247383Y-93313603D01*
X121295040Y-93201325D01*
X121304733Y-93133473D01*
X121307964Y-93059160D01*
X121307964Y-92635897D01*
X121109257Y-92635897D01*
X121109257Y-93033312D01*
X121102997Y-93124790D01*
X121084216Y-93189208D01*
X120986478Y-93240097D01*
X120896010Y-93232019D01*
X120896010Y-92635897D01*
X120695687Y-92635897D01*
X120695687Y-93369338D01*
X120451745Y-93369338D01*
X120451745Y-92685977D01*
X120371575Y-92659725D01*
X120289386Y-92639128D01*
X120199120Y-92625800D01*
X120094717Y-92621357D01*
X120048675Y-92622973D01*
X119984863Y-92628627D01*
X119916204Y-92638320D01*
X119854006Y-92653667D01*
X119532997Y-92653667D01*
X119511519Y-92642359D01*
X119446090Y-92622973D01*
X119379047Y-92616511D01*
X119276013Y-92627550D01*
X119190930Y-92660668D01*
X119123796Y-92715864D01*
X119075331Y-92792242D01*
X119046252Y-92888903D01*
X119036559Y-93005848D01*
X115408927Y-93005848D01*
X115451154Y-92921959D01*
X115505454Y-92826106D01*
X115564391Y-92733034D01*
X115627825Y-92642965D01*
X115695602Y-92556117D01*
X115767558Y-92472699D01*
X115843521Y-92392913D01*
X115923308Y-92316950D01*
X116006725Y-92244993D01*
X116093573Y-92177216D01*
X116183642Y-92113783D01*
X116276715Y-92054845D01*
X116372568Y-92000545D01*
X116470970Y-91951014D01*
X116571683Y-91906371D01*
X116674466Y-91866723D01*
X116779070Y-91832166D01*
X116885244Y-91802784D01*
X116992732Y-91778647D01*
X117101275Y-91759813D01*
X117210611Y-91746327D01*
X117320477Y-91738223D01*
X117430609Y-91735520D01*
X117430743Y-91735520D01*
X139109257Y-91735520D01*
X139109392Y-91735520D01*
X139219523Y-91738223D01*
G37*
%TD*%
M02*
