M48
; DRILL file {KiCad 8.0.3} date 2024-07-05T12:36:02-0500
; FORMAT={-:-/ absolute / inch / decimal}
; #@! TF.CreationDate,2024-07-05T12:36:02-05:00
; #@! TF.GenerationSoftware,Kicad,Pcbnew,8.0.3
; #@! TF.FileFunction,Plated,1,2,PTH
FMAT,2
INCH
; #@! TA.AperFunction,Plated,PTH,ViaDrill
T1C0.0118
; #@! TA.AperFunction,Plated,PTH,ComponentDrill
T2C0.0181
%
G90
G05
T1
X4.3197Y-3.475
X4.3197Y-3.5255
X4.3197Y-3.5761
X4.3197Y-3.8287
X4.3197Y-3.8793
X4.3197Y-3.9298
X4.3654Y-3.4197
X4.3702Y-3.9803
X4.416Y-3.4197
X4.4207Y-3.9803
X4.4665Y-3.4197
X4.4713Y-3.9803
X4.517Y-3.4197
X4.5218Y-3.9803
X4.5676Y-3.4197
X4.5723Y-3.9803
X4.6181Y-3.4197
X4.6229Y-3.9803
X4.6686Y-3.4197
X4.6686Y-3.4745
X4.6686Y-3.525
X4.6686Y-3.575
X4.675Y-3.825
X4.675Y-3.8745
X4.675Y-3.925
X4.675Y-3.9803
X4.7192Y-3.4197
X4.7218Y-3.575
X4.7218Y-3.825
X4.7239Y-3.9803
X4.7697Y-3.4197
X4.7723Y-3.575
X4.7723Y-3.825
X4.7745Y-3.9803
X4.8202Y-3.4197
X4.8229Y-3.575
X4.8229Y-3.825
X4.825Y-3.9803
X4.8707Y-3.4197
X4.8734Y-3.575
X4.8734Y-3.825
X4.8755Y-3.9803
X4.9213Y-3.4197
X4.9239Y-3.575
X4.9239Y-3.825
X4.9261Y-3.9803
X4.9718Y-3.4197
X4.9745Y-3.575
X4.9745Y-3.825
X4.9766Y-3.9803
X5.0223Y-3.4197
X5.025Y-3.575
X5.025Y-3.825
X5.0271Y-3.9803
X5.0729Y-3.4197
X5.0755Y-3.575
X5.0755Y-3.825
X5.0777Y-3.9803
X5.1234Y-3.4197
X5.1261Y-3.575
X5.1261Y-3.825
X5.1282Y-3.9803
X5.1739Y-3.4197
X5.1766Y-3.575
X5.1766Y-3.825
X5.1787Y-3.9803
X5.2245Y-3.4197
X5.2271Y-3.575
X5.2271Y-3.825
X5.2293Y-3.9803
X5.275Y-3.4197
X5.2777Y-3.575
X5.2777Y-3.825
X5.2798Y-3.9803
X5.3255Y-3.4197
X5.3282Y-3.575
X5.3282Y-3.825
X5.3303Y-3.9803
X5.3761Y-3.4197
X5.3787Y-3.575
X5.3787Y-3.825
X5.3808Y-3.9803
X5.4293Y-3.4197
X5.4293Y-3.4745
X5.4293Y-3.525
X5.4293Y-3.575
X5.4314Y-3.825
X5.4314Y-3.8745
X5.4314Y-3.925
X5.4314Y-3.9803
X5.4771Y-3.4197
X5.4819Y-3.9803
X5.5277Y-3.4197
X5.5324Y-3.9803
X5.5782Y-3.4197
X5.583Y-3.9803
X5.6287Y-3.4197
X5.6335Y-3.9803
X5.6793Y-3.4197
X5.684Y-3.9803
X5.7298Y-3.4197
X5.7346Y-3.9803
X5.7803Y-3.4702
X5.7803Y-3.5207
X5.7803Y-3.5713
X5.7803Y-3.8239
X5.7803Y-3.8745
X5.7803Y-3.925
T2
X4.5957Y-3.5276
X4.5957Y-3.8724
X5.5043Y-3.5276
X5.5043Y-3.8724
M30
